<?xml version="1.0" standalone="no"?>
<!DOCTYPE svg PUBLIC "-//W3C//DTD SVG 20010904//EN"
 "http://www.w3.org/TR/2001/REC-SVG-20010904/DTD/svg10.dtd">
<svg version="1.0" xmlns="http://www.w3.org/2000/svg"
 width="371.000000pt" height="368.000000pt" viewBox="0 0 371.000000 368.000000"
 preserveAspectRatio="xMidYMid meet">

<g transform="translate(0.000000,368.000000) scale(0.100000,-0.100000)"
fill="#000000" stroke="none">
<path d="M1873 3669 c-51 -10 -123 -40 -165 -70 -74 -53 -148 -192 -148 -279
0 -17 -3 -30 -7 -28 -133 67 -143 70 -226 71 -176 2 -305 -89 -374 -264 -16
-40 -18 -117 -23 -903 l-5 -859 -160 127 c-179 142 -223 169 -312 186 -159 32
-337 -59 -410 -208 -26 -52 -28 -66 -28 -172 0 -175 -1 -174 340 -505 154
-150 321 -307 370 -349 176 -151 387 -274 600 -351 182 -66 169 -65 792 -65
l566 0 68 25 c347 125 636 416 752 755 65 191 62 139 62 1190 l0 955 -27 57
c-95 203 -330 283 -531 182 -27 -13 -50 -24 -51 -24 -2 0 -6 20 -9 44 -18 128
-100 241 -215 298 -117 58 -263 49 -377 -23 -26 -16 -48 -29 -49 -27 -2 2 -14
23 -28 48 -54 94 -137 157 -243 184 -64 17 -97 18 -162 5z m162 -164 c48 -19
92 -62 117 -113 l23 -47 2 -650 c2 -357 5 -660 8 -672 3 -13 19 -30 36 -39 26
-13 36 -13 60 -3 16 6 33 17 37 23 4 6 9 279 12 606 6 661 2 625 74 692 96 91
232 88 328 -6 68 -66 68 -69 68 -703 0 -342 4 -571 10 -582 5 -10 22 -24 39
-30 24 -10 34 -10 60 3 17 9 33 26 36 39 3 12 6 209 7 437 3 412 3 415 26 462
29 59 92 115 146 129 104 28 220 -24 269 -121 l28 -55 -3 -925 -3 -925 -27
-97 c-127 -463 -491 -772 -964 -818 -124 -12 -388 -12 -559 0 -353 24 -669
140 -950 347 -70 52 -645 596 -701 663 -99 119 -67 288 68 356 64 33 137 35
200 6 24 -11 146 -101 271 -201 191 -151 234 -181 261 -181 21 0 40 8 52 21
18 20 19 55 24 978 l5 958 30 48 c41 67 113 105 196 105 74 0 113 -16 161 -66
75 -79 73 -60 76 -624 3 -547 1 -530 58 -544 28 -7 79 16 88 39 3 9 6 308 6
663 0 425 4 660 11 685 12 43 68 111 110 133 63 32 138 36 204 9z"/>
</g>
</svg>
