<?xml version="1.0" standalone="no"?>
<!DOCTYPE svg PUBLIC "-//W3C//DTD SVG 20010904//EN"
 "http://www.w3.org/TR/2001/REC-SVG-20010904/DTD/svg10.dtd">
<svg version="1.0" xmlns="http://www.w3.org/2000/svg"
 width="367.000000pt" height="371.000000pt" viewBox="0 0 367.000000 371.000000"
 preserveAspectRatio="xMidYMid meet">

<g transform="translate(0.000000,371.000000) scale(0.100000,-0.100000)"
fill="#000000" stroke="none">
<path d="M1534 3686 c-108 -26 -192 -89 -245 -182 l-30 -52 -80 42 c-79 40
-84 41 -178 41 -87 0 -102 -3 -163 -32 -120 -57 -196 -160 -218 -293 -5 -36
-10 -175 -10 -309 l0 -244 -146 -149 c-151 -155 -228 -258 -264 -355 -51 -136
-63 -298 -34 -441 18 -87 77 -222 125 -285 18 -23 186 -197 374 -387 188 -190
352 -362 364 -382 39 -66 51 -155 51 -400 0 -124 3 -233 6 -242 9 -23 129 -23
138 0 3 9 6 129 6 268 0 423 18 389 -460 871 -385 390 -399 406 -446 545 -14
41 -19 83 -19 170 1 98 5 127 28 195 15 44 45 107 66 140 51 78 453 475 505
499 62 29 145 24 208 -12 77 -43 110 -96 115 -186 3 -53 -1 -80 -14 -109 -10
-21 -106 -126 -219 -240 -110 -111 -206 -212 -213 -225 -24 -46 13 -102 68
-102 32 0 51 16 247 212 155 153 221 227 243 268 31 58 55 167 45 206 -6 22
-3 22 65 -12 129 -65 272 -56 389 23 29 20 62 47 73 61 l19 25 50 -47 c28 -26
76 -59 108 -74 50 -24 69 -27 157 -26 118 0 178 22 260 96 l50 45 53 -47 c125
-112 322 -131 455 -44 l39 25 -5 -508 c-4 -428 -7 -519 -21 -578 -24 -101 -58
-189 -119 -312 -141 -281 -167 -408 -167 -823 0 -159 3 -295 6 -304 5 -12 21
-16 70 -16 58 0 64 2 68 23 3 12 7 157 9 322 6 400 17 451 156 738 38 78 81
180 95 226 56 177 57 201 54 1111 l-3 835 -34 67 c-66 131 -179 206 -327 215
-94 6 -134 -4 -217 -54 -32 -19 -60 -33 -61 -32 -2 2 -13 24 -25 47 -29 58
-98 125 -158 156 -63 31 -163 50 -229 41 -68 -8 -162 -54 -219 -106 l-45 -42
-35 36 c-47 49 -108 83 -180 101 -69 19 -111 19 -181 2z m147 -150 c52 -9 123
-66 150 -123 24 -47 24 -54 24 -338 0 -278 -1 -292 -22 -330 -94 -175 -338
-176 -419 -2 -23 51 -24 57 -24 335 0 312 2 327 63 390 49 51 129 86 177 77 8
-2 31 -6 51 -9z m656 -12 c23 -8 58 -33 77 -54 59 -65 66 -109 66 -394 0 -138
-5 -267 -10 -287 -48 -171 -261 -233 -384 -113 -73 71 -76 84 -76 395 0 307 5
337 63 397 73 76 157 94 264 56z m-1242 -158 c60 -27 110 -81 125 -133 9 -32
20 -433 12 -433 -1 0 -19 11 -40 25 -42 27 -138 55 -192 55 -52 0 -143 -24
-185 -48 -20 -12 -38 -22 -41 -22 -2 0 -4 90 -4 200 0 218 6 248 58 304 38 40
118 76 172 76 26 0 66 -10 95 -24z m1860 5 c22 -10 59 -38 81 -63 58 -63 67
-109 62 -338 -3 -206 -9 -228 -76 -294 -95 -95 -263 -79 -344 33 -40 56 -48
103 -48 293 0 153 3 185 20 231 48 127 189 191 305 138z"/>
</g>
</svg>
