<?xml version="1.0" standalone="no"?>
<!DOCTYPE svg PUBLIC "-//W3C//DTD SVG 20010904//EN"
 "http://www.w3.org/TR/2001/REC-SVG-20010904/DTD/svg10.dtd">
<svg version="1.0" xmlns="http://www.w3.org/2000/svg"
 width="372.000000pt" height="373.000000pt" viewBox="0 0 372.000000 373.000000"
 preserveAspectRatio="xMidYMid meet">

<g transform="translate(0.000000,373.000000) scale(0.100000,-0.100000)"
fill="#000000" stroke="none">
<path d="M2626 3379 c-28 -4 -84 -25 -125 -45 -69 -34 -101 -62 -342 -301
l-266 -263 -704 151 c-840 180 -840 180 -975 94 -133 -85 -205 -248 -174 -395
27 -125 128 -245 244 -289 29 -11 233 -56 452 -101 220 -44 403 -82 408 -83 6
-2 -177 -40 -405 -85 -450 -90 -494 -103 -581 -181 -32 -28 -60 -68 -85 -119
-35 -70 -38 -82 -38 -162 1 -74 5 -94 32 -151 50 -108 124 -175 236 -215 81
-29 150 -20 689 85 284 56 521 101 526 101 5 0 33 -120 61 -267 64 -332 81
-396 133 -497 60 -116 182 -236 298 -293 160 -79 155 -78 685 -78 461 0 472 0
550 23 197 57 344 180 446 372 l24 45 0 830 c0 933 6 851 -78 1020 -76 154
-123 212 -381 472 -233 234 -256 254 -326 287 -105 49 -198 63 -304 45z m211
-170 c52 -20 81 -45 287 -248 125 -124 251 -255 278 -291 64 -83 142 -243 167
-343 35 -134 41 -261 41 -821 -1 -577 -5 -639 -50 -745 -64 -147 -219 -275
-381 -313 -81 -19 -893 -18 -969 1 -182 46 -327 172 -390 339 -12 31 -53 212
-91 401 -37 189 -75 354 -84 367 -8 13 -26 26 -38 29 -13 4 -277 -44 -588
-104 -311 -61 -585 -111 -608 -111 -119 0 -223 107 -223 230 0 88 53 171 139
214 25 12 1199 256 1235 256 19 0 58 50 58 74 0 14 -10 36 -22 50 -21 23 -71
34 -608 141 -322 64 -607 123 -634 132 -58 18 -120 71 -148 127 -25 48 -27
136 -4 187 34 80 123 138 211 139 29 0 525 -102 1157 -237 893 -191 1113 -235
1135 -227 63 22 69 102 10 129 -17 8 -167 44 -331 80 -165 36 -301 66 -302 68
-2 2 99 105 224 229 198 197 234 228 282 246 75 28 171 29 247 1z"/>
</g>
</svg>
